<svg width="46" height="37" viewBox="0 0 46 37" fill="none" xmlns="http://www.w3.org/2000/svg">
<path d="M36.4 36C34.333 36 32.517 35.5333 30.95 34.6C29.383 33.6333 28.167 32.3667 27.3 30.8C26.433 29.2 26 27.45 26 25.55V1H33.15V26.4C33.15 27.3 33.467 28.0833 34.1 28.75C34.733 29.3833 35.5 29.7 36.4 29.7H45.65V36H36.4Z" fill="#FF7518"/>
<path d="M0.583618 36V11.2C0.583618 9.3 1.03362 7.58333 1.93362 6.05C2.86695 4.51667 4.10028 3.3 5.63361 2.4C7.20028 1.46667 8.91695 1 10.7836 1H23.4336V7.3H11.5836C10.517 7.3 9.60028 7.68334 8.83362 8.45C8.10028 9.21667 7.73362 10.1333 7.73362 11.2V16.85H21.7336V23.15H7.73362V36H0.583618Z" fill="#FF7518"/>
</svg>
