<svg width="221" height="37" viewBox="0 0 221 37" fill="none" xmlns="http://www.w3.org/2000/svg">
<path d="M190.93 36V1H198.08V15.55H204.73C205.863 15.55 206.896 15.3333 207.83 14.9C208.763 14.4333 209.496 13.7667 210.03 12.9C210.596 12.0333 210.88 11 210.88 9.8V1H218.03V9.8C218.03 12.1333 217.48 14.2 216.38 16C215.28 17.7667 213.83 19.1667 212.03 20.2L216.23 29.05C216.33 29.2833 216.48 29.45 216.68 29.55C216.913 29.65 217.163 29.7 217.43 29.7H220.83V36H216.33C214.663 36 213.296 35.6667 212.23 35C211.163 34.3 210.346 33.3667 209.78 32.2L204.83 21.85C204.496 21.85 204.18 21.85 203.88 21.85C203.58 21.85 203.263 21.85 202.93 21.85H198.08V36H190.93Z" fill="#FF7518"/>
<path d="M174.002 36.5999C171.936 36.5999 170.119 36.1332 168.552 35.1999C166.986 34.2332 165.769 32.9666 164.902 31.3999C164.036 29.7999 163.602 28.0499 163.602 26.1499V9.9999C163.602 9.3999 163.452 8.8499 163.152 8.3499C162.852 7.8499 162.452 7.4499 161.952 7.1499C161.452 6.8499 160.902 6.6999 160.302 6.6999C159.702 6.6999 159.152 6.8499 158.652 7.1499C158.186 7.4499 157.802 7.8499 157.502 8.3499C157.202 8.8499 157.052 9.3999 157.052 9.9999V35.9999H149.902V10.8499C149.902 8.91657 150.336 7.16657 151.202 5.5999C152.069 4.03323 153.286 2.78323 154.852 1.8499C156.419 0.883235 158.236 0.399902 160.302 0.399902C162.402 0.399902 164.236 0.883235 165.802 1.8499C167.369 2.78323 168.586 4.03323 169.452 5.5999C170.319 7.16657 170.752 8.91657 170.752 10.8499V26.9999C170.752 27.5999 170.902 28.1499 171.202 28.6499C171.502 29.1499 171.886 29.5499 172.352 29.8499C172.852 30.1499 173.402 30.2999 174.002 30.2999C174.602 30.2999 175.152 30.1499 175.652 29.8499C176.152 29.5499 176.552 29.1499 176.852 28.6499C177.152 28.1499 177.302 27.5999 177.302 26.9999V0.999901H184.452V26.1499C184.452 28.0499 184.019 29.7999 183.152 31.3999C182.286 32.9666 181.069 34.2332 179.502 35.1999C177.936 36.1332 176.102 36.5999 174.002 36.5999Z" fill="#FF7518"/>
<path d="M124.551 36V29.7H130.851V7.3H124.551V1H144.301V7.3H138.001V29.7H144.301V36H124.551Z" fill="#FF7518"/>
<path d="M111.716 36C109.649 36 107.833 35.5333 106.266 34.6C104.699 33.6333 103.483 32.3667 102.616 30.8C101.749 29.2 101.316 27.45 101.316 25.55V1H108.466V26.4C108.466 27.3 108.783 28.0833 109.416 28.75C110.049 29.3833 110.816 29.7 111.716 29.7H120.966V36H111.716Z" fill="#FF7518"/>
<path d="M84.9887 36.5999C82.922 36.5999 81.1053 36.1332 79.5387 35.1999C77.972 34.2332 76.7553 32.9666 75.8887 31.3999C75.022 29.7999 74.5887 28.0499 74.5887 26.1499V9.9999C74.5887 9.3999 74.4387 8.8499 74.1387 8.3499C73.8387 7.8499 73.4387 7.4499 72.9387 7.1499C72.4387 6.8499 71.8887 6.6999 71.2887 6.6999C70.6887 6.6999 70.1387 6.8499 69.6387 7.1499C69.172 7.4499 68.7887 7.8499 68.4887 8.3499C68.1887 8.8499 68.0387 9.3999 68.0387 9.9999V35.9999H60.8887V10.8499C60.8887 8.91657 61.322 7.16657 62.1887 5.5999C63.0553 4.03323 64.272 2.78323 65.8387 1.8499C67.4053 0.883235 69.222 0.399902 71.2887 0.399902C73.3887 0.399902 75.222 0.883235 76.7887 1.8499C78.3553 2.78323 79.572 4.03323 80.4387 5.5999C81.3053 7.16657 81.7387 8.91657 81.7387 10.8499V26.9999C81.7387 27.5999 81.8887 28.1499 82.1887 28.6499C82.4887 29.1499 82.872 29.5499 83.3387 29.8499C83.8387 30.1499 84.3887 30.2999 84.9887 30.2999C85.5887 30.2999 86.1387 30.1499 86.6387 29.8499C87.1387 29.5499 87.5387 29.1499 87.8387 28.6499C88.1387 28.1499 88.2887 27.5999 88.2887 26.9999V0.999901H95.4387V26.1499C95.4387 28.0499 95.0053 29.7999 94.1387 31.3999C93.272 32.9666 92.0553 34.2332 90.4887 35.1999C88.922 36.1332 87.0887 36.5999 84.9887 36.5999Z" fill="#FF7518"/>
<path d="M22.1953 35.9999L33.5953 4.8999C34.162 3.3999 35.0453 2.28323 36.2453 1.5499C37.4786 0.783235 38.862 0.399902 40.3953 0.399902C41.9287 0.399902 43.312 0.766567 44.5453 1.4999C45.7786 2.1999 46.662 3.31657 47.1953 4.8499L58.6453 35.9999H50.7953L48.4453 28.9499H32.1453L29.6953 35.9999H22.1953ZM34.2953 22.6499H46.3453L41.2953 7.2999C41.2286 7.06657 41.112 6.8999 40.9453 6.7999C40.812 6.6999 40.6453 6.6499 40.4453 6.6499C40.2453 6.6499 40.0786 6.71657 39.9453 6.8499C39.812 6.9499 39.712 7.0999 39.6453 7.2999L34.2953 22.6499Z" fill="#FF7518"/>
<path d="M0.583618 36V11.2C0.583618 9.3 1.03362 7.58333 1.93362 6.05C2.86695 4.51667 4.10028 3.3 5.63361 2.4C7.20028 1.46667 8.91695 1 10.7836 1H23.4336V7.3H11.5836C10.517 7.3 9.60028 7.68334 8.83362 8.45C8.10028 9.21667 7.73362 10.1333 7.73362 11.2V16.85H21.7336V23.15H7.73362V36H0.583618Z" fill="#FF7518"/>
</svg>
